<svg width="124" height="35" viewBox="0 0 124 35" fill="none" xmlns="http://www.w3.org/2000/svg">
<path d="M0.0160001 8.89662H4.444V11.2006H4.732C5.284 10.3366 6.028 9.64062 6.964 9.11262C7.924 8.58462 8.98 8.32062 10.132 8.32062C11.476 8.32062 12.604 8.63262 13.516 9.25662C14.428 9.88062 15.076 10.6486 15.46 11.5606C16.012 10.6726 16.792 9.91662 17.8 9.29262C18.808 8.64462 20.032 8.32062 21.472 8.32062C22.552 8.32062 23.488 8.50062 24.28 8.86062C25.072 9.19662 25.72 9.67662 26.224 10.3006C26.752 10.9246 27.148 11.6806 27.412 12.5686C27.676 13.4326 27.808 14.3806 27.808 15.4126V26.5366H23.092V16.2766C23.092 13.8766 22.108 12.6766 20.14 12.6766C19.516 12.6766 18.964 12.8206 18.484 13.1086C18.004 13.3726 17.596 13.7446 17.26 14.2246C16.948 14.6806 16.696 15.2326 16.504 15.8806C16.336 16.5286 16.252 17.2246 16.252 17.9686V26.5366H11.536V16.2766C11.536 13.8766 10.504 12.6766 8.44 12.6766C7.84 12.6766 7.312 12.8206 6.856 13.1086C6.4 13.3726 6.016 13.7446 5.704 14.2246C5.392 14.6806 5.152 15.2326 4.984 15.8806C4.816 16.5286 4.732 17.2246 4.732 17.9686V26.5366H0.0160001V8.89662ZM36.8842 25.6726L29.4682 8.89662H34.8322L39.2962 19.5886H39.5482L43.8322 8.89662H49.0882L38.0362 34.3126H32.9602L36.8842 25.6726Z" fill="#012D74"/>
<path d="M51.2387 0.76062H55.9547V7.99662L55.6667 11.2006H55.9547C56.4587 10.3606 57.1787 9.67662 58.1147 9.14862C59.0747 8.59662 60.1427 8.32062 61.3187 8.32062C63.5987 8.32062 65.2787 8.99262 66.3587 10.3366C67.4627 11.6806 68.0147 13.5166 68.0147 15.8446V26.5366H63.2987V16.4206C63.2987 15.1966 63.0107 14.2726 62.4347 13.6486C61.8587 13.0006 61.0547 12.6766 60.0227 12.6766C59.3747 12.6766 58.7987 12.8206 58.2947 13.1086C57.7907 13.3726 57.3587 13.7446 56.9987 14.2246C56.6627 14.7046 56.3987 15.2686 56.2067 15.9166C56.0387 16.5406 55.9547 17.2126 55.9547 17.9326V26.5366H51.2387V0.76062ZM88.6145 22.2886C87.7985 23.7286 86.6945 24.8926 85.3025 25.7806C83.9345 26.6686 82.2545 27.1126 80.2625 27.1126C78.9185 27.1126 77.6705 26.8846 76.5185 26.4286C75.3905 25.9486 74.4065 25.2886 73.5665 24.4486C72.7265 23.6086 72.0665 22.6246 71.5865 21.4966C71.1305 20.3446 70.9025 19.0846 70.9025 17.7166C70.9025 16.4446 71.1305 15.2446 71.5865 14.1166C72.0425 12.9646 72.6785 11.9686 73.4945 11.1286C74.3105 10.2646 75.2705 9.58062 76.3745 9.07662C77.5025 8.57262 78.7385 8.32062 80.0825 8.32062C81.4985 8.32062 82.7585 8.56062 83.8625 9.04062C84.9665 9.49662 85.8905 10.1446 86.6345 10.9846C87.3785 11.8006 87.9425 12.7726 88.3265 13.9006C88.7105 15.0286 88.9025 16.2526 88.9025 17.5726C88.9025 17.7406 88.9025 17.8846 88.9025 18.0046C88.8785 18.1486 88.8665 18.2806 88.8665 18.4006C88.8425 18.5206 88.8305 18.6526 88.8305 18.7966H75.5465C75.6425 19.5166 75.8345 20.1406 76.1225 20.6686C76.4345 21.1726 76.8065 21.6046 77.2385 21.9646C77.6945 22.3006 78.1865 22.5526 78.7145 22.7206C79.2425 22.8646 79.7825 22.9366 80.3345 22.9366C81.4145 22.9366 82.3025 22.6966 82.9985 22.2166C83.7185 21.7126 84.2825 21.0886 84.6905 20.3446L88.6145 22.2886ZM84.3305 15.4486C84.3065 15.1366 84.1985 14.7886 84.0065 14.4046C83.8385 14.0206 83.5745 13.6606 83.2145 13.3246C82.8785 12.9886 82.4465 12.7126 81.9185 12.4966C81.4145 12.2806 80.8025 12.1726 80.0825 12.1726C79.0745 12.1726 78.1865 12.4606 77.4185 13.0366C76.6505 13.6126 76.1105 14.4166 75.7985 15.4486H84.3305ZM91.9144 8.89662H96.3424V11.3446H96.6304C96.8464 10.9126 97.1344 10.5166 97.4944 10.1566C97.8544 9.79662 98.2504 9.48462 98.6824 9.22062C99.1384 8.95662 99.6184 8.75262 100.122 8.60862C100.65 8.46462 101.166 8.39262 101.67 8.39262C102.294 8.39262 102.822 8.45262 103.254 8.57262C103.71 8.69262 104.094 8.84862 104.406 9.04062L103.146 13.3246C102.858 13.1806 102.534 13.0726 102.174 13.0006C101.838 12.9046 101.418 12.8566 100.914 12.8566C100.266 12.8566 99.6784 12.9886 99.1504 13.2526C98.6224 13.4926 98.1664 13.8406 97.7824 14.2966C97.4224 14.7526 97.1344 15.2926 96.9184 15.9166C96.7264 16.5166 96.6304 17.1766 96.6304 17.8966V26.5366H91.9144V8.89662ZM113.837 8.32062C115.205 8.32062 116.453 8.56062 117.581 9.04062C118.733 9.49662 119.717 10.1446 120.533 10.9846C121.373 11.8006 122.021 12.7846 122.477 13.9366C122.957 15.0886 123.197 16.3486 123.197 17.7166C123.197 19.0846 122.957 20.3446 122.477 21.4966C122.021 22.6486 121.373 23.6446 120.533 24.4846C119.717 25.3006 118.733 25.9486 117.581 26.4286C116.453 26.8846 115.205 27.1126 113.837 27.1126C112.469 27.1126 111.209 26.8846 110.057 26.4286C108.929 25.9486 107.945 25.3006 107.105 24.4846C106.289 23.6446 105.641 22.6486 105.161 21.4966C104.705 20.3446 104.477 19.0846 104.477 17.7166C104.477 16.3486 104.705 15.0886 105.161 13.9366C105.641 12.7846 106.289 11.8006 107.105 10.9846C107.945 10.1446 108.929 9.49662 110.057 9.04062C111.209 8.56062 112.469 8.32062 113.837 8.32062ZM113.837 22.7566C114.437 22.7566 115.013 22.6486 115.565 22.4326C116.141 22.1926 116.645 21.8566 117.077 21.4246C117.509 20.9926 117.845 20.4646 118.085 19.8406C118.349 19.2166 118.481 18.5086 118.481 17.7166C118.481 16.9246 118.349 16.2166 118.085 15.5926C117.845 14.9686 117.509 14.4406 117.077 14.0086C116.645 13.5766 116.141 13.2526 115.565 13.0366C115.013 12.7966 114.437 12.6766 113.837 12.6766C113.213 12.6766 112.625 12.7966 112.073 13.0366C111.521 13.2526 111.029 13.5766 110.597 14.0086C110.165 14.4406 109.817 14.9686 109.553 15.5926C109.313 16.2166 109.193 16.9246 109.193 17.7166C109.193 18.5086 109.313 19.2166 109.553 19.8406C109.817 20.4646 110.165 20.9926 110.597 21.4246C111.029 21.8566 111.521 22.1926 112.073 22.4326C112.625 22.6486 113.213 22.7566 113.837 22.7566Z" fill="#EB0029"/>
</svg>
